HIERARCHY
ROOT root
{
	OFFSET	0	13.1	24.9
	CHANNELS 6  Xposition Yposition Zposition Xrotation Yrotation Zrotation
	JOINT spine_1
	{
		OFFSET	0	9.99999	0
		CHANNELS 3  Xrotation Yrotation Zrotation
		JOINT spine_2
		{
			OFFSET	0	112	-10
			CHANNELS 3  Xrotation Yrotation Zrotation
			JOINT spine_3
			{
				OFFSET	0	206.5	19.3
				CHANNELS 3  Xrotation Yrotation Zrotation
				JOINT spine_4
				{
					OFFSET	0	110.4	14.6
					CHANNELS 3  Xrotation Yrotation Zrotation
					JOINT neck_1
					{
						OFFSET	0	71.8	-50.3
						CHANNELS 3  Xrotation Yrotation Zrotation
						JOINT neck_2
						{
							OFFSET	0	86.2	-25.8
							CHANNELS 3  Xrotation Yrotation Zrotation
							JOINT head_ee
							{
								OFFSET	0	179.8	-8.7
								CHANNELS 3  Xrotation Yrotation Zrotation
								End Site
								{
									OFFSET	1	0	0
								}
							}
						}
					}
					JOINT left_clavicle
					{
						OFFSET	-43.2	22.4	-70.8
						CHANNELS 3  Xrotation Yrotation Zrotation
						JOINT left_shoulder
						{
							OFFSET	-93.9	-5.79999	48.7
							CHANNELS 3  Xrotation Yrotation Zrotation
							JOINT left_elbow
							{
								OFFSET	-291.4	-30.8	15.2
								CHANNELS 3  Xrotation Yrotation Zrotation
								JOINT left_lowarm_twist
								{
									OFFSET	-110.7	-3.89999	13.6
									CHANNELS 3  Xrotation Yrotation Zrotation
									JOINT left_hand
									{
										OFFSET	-110.7	-3.89999	13.6
										CHANNELS 3  Xrotation Yrotation Zrotation
										JOINT left_ee
										{
											OFFSET	-80.8	-5.10001	12.1
											CHANNELS 3  Xrotation Yrotation Zrotation
											End Site
											{
												OFFSET	1	0	0
											}
										}
									}
								}
							}
						}
					}
					JOINT right_clavicle
					{
						OFFSET	43.2	22.4	-70.8
						CHANNELS 3  Xrotation Yrotation Zrotation
						JOINT right_shoulder
						{
							OFFSET	93.9	-5.79999	48.7
							CHANNELS 3  Xrotation Yrotation Zrotation
							JOINT right_elbow
							{
								OFFSET	291.4	-30.8	15.2
								CHANNELS 3  Xrotation Yrotation Zrotation
								JOINT right_lowarm_twist
								{
									OFFSET	110.7	-3.89999	13.6
									CHANNELS 3  Xrotation Yrotation Zrotation
									JOINT right_hand
									{
										OFFSET	110.7	-3.89999	13.6
										CHANNELS 3  Xrotation Yrotation Zrotation
										JOINT right_ee
										{
											OFFSET	80.8	-5.10001	12.1
											CHANNELS 3  Xrotation Yrotation Zrotation
											End Site
											{
												OFFSET	1	0	0
											}
										}
									}
								}
							}
						}
					}
				}
			}
		}
	}
	JOINT left_hip
	{
		OFFSET	-82.8	-127.5	0.300001
		CHANNELS 3  Xrotation Yrotation Zrotation
		JOINT left_knee
		{
			OFFSET	-28.2	-396.7	2.2
			CHANNELS 3  Xrotation Yrotation Zrotation
			JOINT left_ankle
			{
				OFFSET	-11.7	-411.3	35.4
				CHANNELS 3  Xrotation Yrotation Zrotation
				JOINT left_toes
				{
					OFFSET	0	-60	-88.6
					CHANNELS 3  Xrotation Yrotation Zrotation
					JOINT left_foot_ee
					{
						OFFSET	-22.5	-16.5	-42.2
						CHANNELS 3  Xrotation Yrotation Zrotation
						End Site
						{
							OFFSET	1	0	0
						}
					}
				}
			}
		}
	}
	JOINT right_hip
	{
		OFFSET	82.8	-127.5	0.300001
		CHANNELS 3  Xrotation Yrotation Zrotation
		JOINT right_knee
		{
			OFFSET	28.2	-396.7	2.2
			CHANNELS 3  Xrotation Yrotation Zrotation
			JOINT right_ankle
			{
				OFFSET	11.7	-411.3	35.4
				CHANNELS 3  Xrotation Yrotation Zrotation
				JOINT right_toes
				{
					OFFSET	0	-60	-88.6
					CHANNELS 3  Xrotation Yrotation Zrotation
					JOINT right_foot_ee
					{
						OFFSET	22.5	-16.5	-42.2
						CHANNELS 3  Xrotation Yrotation Zrotation
						End Site
						{
							OFFSET	1	0	0
						}
					}
				}
			}
		}
	}
}
MOTION
Frames: 5
Frame Time: 0.02
1041.4 574.639 -1682.42 -30.4731724104 42.605706827 31.38789256 8.97461 -0.492962 -2.32634 8.97756 -0.343974 -2.35297 8.98572 -0.214504 -2.36828 8.97837 -0.585738 -2.30474 -19.3316 -11.773 -0.962672 -20.0347 -22.1772 -5.85922 -0.0 0.0 -0.0 6.79118 16.7052 12.668 -23.7394 0.754822 62.4593 0.187343 -5.30224 0.00867477 -10.3604 -0.478054 1.23352 1.71154 16.5727 17.5275 -0.0 0.0 -0.0 5.13292 -17.0223 -10.0007 -18.09 26.5815 -51.9188 0.986414 26.0415 -0.228113 -26.3722 1.63171 -2.92046 -2.87047 26.0183 30.741 0.0 0.0 0.0 58.1973 -16.9042 1.89738 -5.66722 0.191503 0.848315 1.77158 7.49377 -0.258152 -0.0259058 0.0 0.0 -0.0 0.0 -0.0 1.75981 -26.934 -17.6917 -12.963 -0.313098 -1.96048 38.1596 22.8391 5.31299 6.69346 -0.0 -0.0 0.0 0.0 0.0 
1041.4 574.639 -1682.42 -30.6786398104 42.981337786 31.690333886 8.97461 -0.492962 -2.32634 8.97756 -0.343974 -2.35297 8.98572 -0.214504 -2.36828 8.97837 -0.585738 -2.30474 -19.3316 -11.773 -0.962672 -20.0347 -22.1772 -5.85922 -0.0 0.0 -0.0 6.79118 16.7052 12.668 -23.7394 0.754822 62.4593 0.187343 -5.30224 0.00867477 -10.3604 -0.478054 1.23352 1.71154 16.5727 17.5275 -0.0 0.0 -0.0 5.13292 -17.0223 -10.0007 -18.09 26.5815 -51.9188 0.986414 26.0415 -0.228113 -26.3722 1.63171 -2.92046 -2.87047 26.0183 30.741 0.0 0.0 0.0 58.1973 -16.9042 1.89738 -5.66722 0.191503 0.848315 1.77158 7.49377 -0.258152 -0.0259058 0.0 0.0 -0.0 0.0 -0.0 1.75981 -26.934 -17.6917 -12.963 -0.313098 -1.96048 38.1596 22.8391 5.31299 6.69346 -0.0 -0.0 0.0 0.0 0.0 
1041.4 574.639 -1682.42 -30.9935157625 43.5418078661 32.1497786021 8.97461 -0.492962 -2.32634 8.97756 -0.343974 -2.35297 8.98572 -0.214504 -2.36828 8.97837 -0.585738 -2.30474 -19.3316 -11.773 -0.962672 -20.0347 -22.1772 -5.85922 -0.0 0.0 -0.0 6.79118 16.7052 12.668 -23.7394 0.754822 62.4593 0.187343 -5.30224 0.00867477 -10.3604 -0.478054 1.23352 1.71154 16.5727 17.5275 -0.0 0.0 -0.0 5.13292 -17.0223 -10.0007 -18.09 26.5815 -51.9188 0.986414 26.0415 -0.228113 -26.3722 1.63171 -2.92046 -2.87047 26.0183 30.741 0.0 0.0 0.0 58.1973 -16.9042 1.89738 -5.66722 0.191503 0.848315 1.77158 7.49377 -0.258152 -0.0259058 0.0 0.0 -0.0 0.0 -0.0 1.75981 -26.934 -17.6917 -12.963 -0.313098 -1.96048 38.1596 22.8391 5.31299 6.69346 -0.0 -0.0 0.0 0.0 0.0 
1021.13732724 575.05 -1708.83197631 -31.331830217 43.9481091856 33.7340453174 9.02664 -0.546602 -2.37313 9.02968 -0.394531 -2.40308 9.03998 -0.264581 -2.42083 9.03237 -0.643479 -2.34873 -19.2594 -12.655 -1.16834 -20.069 -23.7659 -6.43799 -0.0 0.0 -0.0 7.51005 15.8895 13.9035 -22.7554 3.43007 61.9921 0.186666 -5.28319 0.00861222 -9.4676 -0.428135 1.13079 2.00762 17.7556 19.8175 -0.0 0.0 -0.0 5.08551 -19.3066 -9.87161 -17.2987 27.9419 -52.6632 0.897768 23.9758 -0.190632 -29.2001 1.8825 -3.1822 -2.6734 25.42 29.0933 0.0 0.0 0.0 57.2241 -17.0578 0.656852 -9.23718 0.268706 1.39062 -2.78302 6.35899 0.4101 6.62236 -0.0 -0.0 -0.0 0.0 -0.0 0.772229 -26.6793 -18.1615 -16.6761 -0.320404 -2.53004 38.2384 21.6941 5.26615 9.79867 -0.0 -0.0 0.0 0.0 0.0 
1020.89573421 575.05 -1708.64486386 -31.5985493362 44.396723929 34.1168078799 9.02664 -0.546602 -2.37313 9.02968 -0.394531 -2.40308 9.03998 -0.264581 -2.42083 9.03237 -0.643479 -2.34873 -19.2594 -12.655 -1.16834 -20.069 -23.7659 -6.43799 -0.0 0.0 -0.0 7.51005 15.8895 13.9035 -22.7554 3.43007 61.9921 0.186666 -5.28319 0.00861222 -9.4676 -0.428135 1.13079 2.00762 17.7556 19.8175 -0.0 0.0 -0.0 5.08551 -19.3066 -9.87161 -17.2987 27.9419 -52.6632 0.897768 23.9758 -0.190632 -29.2001 1.8825 -3.1822 -2.6734 25.42 29.0933 0.0 0.0 0.0 57.2241 -17.0578 0.656852 -9.23718 0.268706 1.39062 -2.78302 6.35899 0.4101 6.62236 -0.0 -0.0 -0.0 0.0 -0.0 0.772229 -26.6793 -18.1615 -16.6761 -0.320404 -2.53004 38.2384 21.6941 5.26615 9.79867 -0.0 -0.0 0.0 0.0 0.0 
